<svg width="47" height="42" viewBox="0 0 47 42" fill="none" xmlns="http://www.w3.org/2000/svg">
<rect x="7.68683" width="34.6098" height="27.6879" rx="2" fill="#BC0000"/>
<path d="M0.764893 7.81466C0.764893 6.69455 0.764893 6.1345 0.98288 5.70667C1.17463 5.33035 1.48059 5.02439 1.85691 4.83264C2.28474 4.61465 2.84479 4.61465 3.96489 4.61465H17.5109C18.137 4.61465 18.4501 4.61465 18.7343 4.70096C18.9859 4.77736 19.2199 4.90262 19.423 5.06956C19.6525 5.25814 19.8261 5.51863 20.1734 6.03961L22.8881 10.1117C23.2355 10.6326 23.4091 10.8931 23.6386 11.0817C23.8417 11.2487 24.0757 11.3739 24.3273 11.4503C24.6115 11.5366 24.9246 11.5366 25.5507 11.5366H43.7113C44.8314 11.5366 45.3915 11.5366 45.8193 11.7546C46.1956 11.9464 46.5016 12.2523 46.6933 12.6286C46.9113 13.0565 46.9113 13.6165 46.9113 14.7366V38.3318C46.9113 39.4519 46.9113 40.012 46.6933 40.4398C46.5016 40.8161 46.1956 41.1221 45.8193 41.3138C45.3915 41.5318 44.8314 41.5318 43.7113 41.5318H3.96489C2.84479 41.5318 2.28474 41.5318 1.85691 41.3138C1.48059 41.1221 1.17463 40.8161 0.98288 40.4398C0.764893 40.012 0.764893 39.4519 0.764893 38.3318V7.81466Z" fill="#BC0000"/>
</svg>
