<svg width="45" height="45" viewBox="0 0 45 45" fill="none" xmlns="http://www.w3.org/2000/svg">
<path fill-rule="evenodd" clip-rule="evenodd" d="M22.6935 14.0596C22.6935 14.0682 22.6656 14.0751 22.6316 14.0751C22.5975 14.0751 22.5697 14.0821 22.5697 14.0907C22.5697 14.0992 22.5557 14.1062 22.5387 14.1062C22.5217 14.1062 22.5077 14.1131 22.5077 14.1217C22.5077 14.1302 22.4938 14.1372 22.4768 14.1372C22.4598 14.1372 22.4458 14.1442 22.4458 14.1527C22.4458 14.1612 22.4334 14.1682 22.4183 14.1682C22.4031 14.1682 22.3807 14.1822 22.3684 14.1992C22.3561 14.2163 22.3337 14.2302 22.3186 14.2302C22.3034 14.2302 22.291 14.2372 22.291 14.2458C22.291 14.2543 22.2771 14.2613 22.2601 14.2613C22.243 14.2613 22.2291 14.2682 22.2291 14.2768C22.2291 14.2853 22.218 14.2923 22.2044 14.2923C22.1907 14.2923 22.1601 14.3132 22.1362 14.3388C22.1124 14.3644 22.0832 14.3854 22.0715 14.3854C22.0598 14.3854 22.0401 14.3993 22.0279 14.4164C22.0156 14.4334 21.9947 14.4474 21.9814 14.4474C21.9682 14.4474 21.9473 14.4614 21.935 14.4784C21.9227 14.4955 21.9018 14.5094 21.8885 14.5094C21.8753 14.5094 21.8544 14.5234 21.8421 14.5405C21.8298 14.5575 21.8089 14.5715 21.7957 14.5715C21.7824 14.5715 21.7615 14.5854 21.7492 14.6025C21.737 14.6196 21.7173 14.6335 21.7056 14.6335C21.6939 14.6335 21.6647 14.6545 21.6409 14.68C21.617 14.7056 21.5879 14.7266 21.5762 14.7266C21.5644 14.7266 21.5448 14.7405 21.5325 14.7576C21.5202 14.7747 21.4993 14.7886 21.4861 14.7886C21.4728 14.7886 21.4519 14.8026 21.4396 14.8196C21.4274 14.8367 21.4077 14.8507 21.396 14.8507C21.3843 14.8507 21.3551 14.8716 21.3313 14.8972C21.3074 14.9228 21.2783 14.9437 21.2666 14.9437C21.2548 14.9437 21.2352 14.9577 21.2229 14.9747C21.2106 14.9918 21.1897 15.0058 21.1765 15.0058C21.1632 15.0058 21.1423 15.0197 21.13 15.0368C21.1178 15.0538 21.0969 15.0678 21.0836 15.0678C21.0703 15.0678 21.0494 15.0818 21.0372 15.0988C21.0249 15.1159 21.0024 15.1298 20.9873 15.1298C20.9722 15.1298 20.9598 15.1368 20.9598 15.1453C20.9598 15.1539 20.9474 15.1609 20.9322 15.1609C20.9171 15.1609 20.8946 15.1748 20.8824 15.1919C20.8701 15.2089 20.8476 15.2229 20.8325 15.2229C20.8174 15.2229 20.805 15.2299 20.805 15.2384C20.805 15.2469 20.7926 15.2539 20.7774 15.2539C20.7623 15.2539 20.7398 15.2679 20.7276 15.2849C20.7153 15.302 20.6929 15.316 20.6777 15.316C20.6626 15.316 20.6502 15.3229 20.6502 15.3315C20.6502 15.34 20.6378 15.347 20.6226 15.347C20.6075 15.347 20.585 15.3609 20.5728 15.378C20.5605 15.3951 20.5381 15.409 20.5229 15.409C20.5078 15.409 20.4954 15.416 20.4954 15.4245C20.4954 15.4331 20.483 15.44 20.4678 15.44C20.4527 15.44 20.4302 15.454 20.418 15.4711C20.4057 15.4881 20.3833 15.5021 20.3681 15.5021C20.353 15.5021 20.3406 15.5091 20.3406 15.5176C20.3406 15.5261 20.3266 15.5331 20.3096 15.5331C20.2926 15.5331 20.2786 15.5401 20.2786 15.5486C20.2786 15.5571 20.2647 15.5641 20.2477 15.5641C20.2307 15.5641 20.2167 15.5711 20.2167 15.5796C20.2167 15.5882 20.2028 15.5951 20.1858 15.5951C20.1687 15.5951 20.1548 15.6021 20.1548 15.6106C20.1548 15.6192 20.1409 15.6262 20.1238 15.6262C20.1068 15.6262 20.0929 15.6331 20.0929 15.6417C20.0929 15.6502 20.072 15.6572 20.0464 15.6572C20.0209 15.6572 20 15.6642 20 15.6727C20 15.6812 19.9861 15.6882 19.969 15.6882C19.952 15.6882 19.9381 15.6952 19.9381 15.7037C19.9381 15.7122 19.9242 15.7192 19.9071 15.7192C19.8901 15.7192 19.8762 15.7262 19.8762 15.7347C19.8762 15.7433 19.8622 15.7502 19.8452 15.7502C19.8282 15.7502 19.8142 15.7572 19.8142 15.7658C19.8142 15.7743 19.7933 15.7813 19.7678 15.7813C19.7423 15.7813 19.7214 15.7882 19.7214 15.7968C19.7214 15.8053 19.7074 15.8123 19.6904 15.8123C19.6734 15.8123 19.6594 15.8193 19.6594 15.8278C19.6594 15.8363 19.6385 15.8433 19.613 15.8433C19.5875 15.8433 19.5666 15.8503 19.5666 15.8588C19.5666 15.8673 19.5457 15.8743 19.5201 15.8743C19.4946 15.8743 19.4737 15.8813 19.4737 15.8898C19.4737 15.8984 19.4528 15.9053 19.4272 15.9053C19.4017 15.9053 19.3808 15.9123 19.3808 15.9209C19.3808 15.9294 19.3599 15.9364 19.3344 15.9364C19.3088 15.9364 19.2879 15.9433 19.2879 15.9519C19.2879 15.9604 19.267 15.9674 19.2415 15.9674C19.2159 15.9674 19.195 15.9744 19.195 15.9829C19.195 15.9914 19.1672 15.9984 19.1331 15.9984C19.0991 15.9984 19.0712 16.0054 19.0712 16.0139C19.0712 16.0224 19.0433 16.0294 19.0093 16.0294C18.9752 16.0294 18.9474 16.0364 18.9474 16.0449C18.9474 16.0535 18.9195 16.0604 18.8855 16.0604C18.8514 16.0604 18.8235 16.0674 18.8235 16.076C18.8235 16.0846 18.7822 16.0915 18.7307 16.0915C18.6791 16.0915 18.6378 16.0983 18.6378 16.107C18.6378 16.1155 18.6029 16.1225 18.5604 16.1225C18.5178 16.1225 18.483 16.1295 18.483 16.138C18.483 16.1472 18.4262 16.1535 18.3437 16.1535C18.2611 16.1535 18.2043 16.1598 18.2043 16.169C18.2043 16.1785 18.1321 16.1845 18.0186 16.1845C17.9051 16.1845 17.8328 16.1906 17.8328 16.2C17.8328 16.2101 17.6522 16.2155 17.322 16.2155C16.9918 16.2155 16.8111 16.2101 16.8111 16.2C16.8111 16.1902 16.6873 16.1845 16.4706 16.1845C16.2539 16.1845 16.13 16.1902 16.13 16.2C16.13 16.2086 16.1191 16.2155 16.1057 16.2155C16.0744 16.2155 16.0372 16.2529 16.0372 16.2842C16.0372 16.2976 16.0302 16.3086 16.0217 16.3086C16.0132 16.3086 16.0062 16.3226 16.0062 16.3396C16.0062 16.3567 15.9992 16.3706 15.9907 16.3706C15.9821 16.3706 15.9752 16.412 15.9752 16.4637C15.9752 16.5154 15.9684 16.5568 15.9598 16.5568C15.9496 16.5568 15.9443 16.8359 15.9443 17.3633C15.9443 17.8906 15.9389 18.1698 15.9288 18.1698C15.9187 18.1698 15.9133 18.4749 15.9133 19.0539C15.9133 19.6329 15.908 19.938 15.8978 19.938C15.8877 19.938 15.8824 20.243 15.8824 20.822C15.8824 21.4011 15.8877 21.7061 15.8978 21.7061C15.907 21.7061 15.9133 21.763 15.9133 21.8457C15.9133 21.9284 15.9196 21.9853 15.9288 21.9853C15.9376 21.9853 15.9443 22.0318 15.9443 22.0939C15.9443 22.1559 15.9509 22.2024 15.9598 22.2024C15.9683 22.2024 15.9752 22.2373 15.9752 22.28C15.9752 22.3226 15.9822 22.3575 15.9907 22.3575C15.9992 22.3575 16.0062 22.3924 16.0062 22.4351C16.0062 22.4778 16.0132 22.5126 16.0217 22.5126C16.0302 22.5126 16.0372 22.5406 16.0372 22.5747C16.0372 22.6088 16.0441 22.6367 16.0526 22.6367C16.0611 22.6367 16.0681 22.6646 16.0681 22.6988C16.0681 22.7329 16.0751 22.7608 16.0836 22.7608C16.0921 22.7608 16.0991 22.7887 16.0991 22.8229C16.0991 22.857 16.106 22.8849 16.1146 22.8849C16.1231 22.8849 16.13 22.9058 16.13 22.9314C16.13 22.957 16.137 22.978 16.1455 22.978C16.154 22.978 16.161 23.0059 16.161 23.04C16.161 23.0741 16.168 23.102 16.1765 23.102C16.185 23.102 16.192 23.123 16.192 23.1486C16.192 23.1742 16.1989 23.1951 16.2074 23.1951C16.2159 23.1951 16.2229 23.216 16.2229 23.2416C16.2229 23.2672 16.2299 23.2882 16.2384 23.2882C16.2469 23.2882 16.2539 23.3091 16.2539 23.3347C16.2539 23.3603 16.2608 23.3812 16.2694 23.3812C16.2779 23.3812 16.2848 23.3952 16.2848 23.4122C16.2848 23.4293 16.2918 23.4433 16.3003 23.4433C16.3088 23.4433 16.3158 23.4642 16.3158 23.4898C16.3158 23.5154 16.3228 23.5363 16.3313 23.5363C16.3398 23.5363 16.3468 23.5573 16.3468 23.5828C16.3468 23.6084 16.3537 23.6294 16.3622 23.6294C16.3707 23.6294 16.3777 23.6433 16.3777 23.6604C16.3777 23.6775 16.3847 23.6914 16.3932 23.6914C16.4017 23.6914 16.4087 23.7124 16.4087 23.7379C16.4087 23.7635 16.4156 23.7845 16.4242 23.7845C16.4327 23.7845 16.4396 23.7984 16.4396 23.8155C16.4396 23.8326 16.4466 23.8465 16.4551 23.8465C16.4636 23.8465 16.4706 23.8605 16.4706 23.8775C16.4706 23.8946 16.4776 23.9086 16.4861 23.9086C16.4946 23.9086 16.5015 23.9225 16.5015 23.9396C16.5015 23.9566 16.5085 23.9706 16.517 23.9706C16.5255 23.9706 16.5325 23.9915 16.5325 24.0171C16.5325 24.0427 16.5395 24.0637 16.548 24.0637C16.5565 24.0637 16.5635 24.0776 16.5635 24.0947C16.5635 24.1117 16.5704 24.1257 16.5789 24.1257C16.5875 24.1257 16.5944 24.1397 16.5944 24.1567C16.5944 24.1738 16.6014 24.1877 16.6099 24.1877C16.6184 24.1877 16.6254 24.2017 16.6254 24.2188C16.6254 24.2358 16.6324 24.2498 16.6409 24.2498C16.6494 24.2498 16.6563 24.2637 16.6563 24.2808C16.6563 24.2979 16.6633 24.3118 16.6718 24.3118C16.6803 24.3118 16.6873 24.3258 16.6873 24.3428C16.6873 24.3599 16.6943 24.3739 16.7028 24.3739C16.7113 24.3739 16.7183 24.3878 16.7183 24.4049C16.7183 24.4219 16.7252 24.4359 16.7337 24.4359C16.7423 24.4359 16.7492 24.4499 16.7492 24.4669C16.7492 24.484 16.7562 24.4979 16.7647 24.4979C16.7732 24.4979 16.7802 24.5104 16.7802 24.5255C16.7802 24.5407 16.7941 24.5632 16.8111 24.5755C16.8282 24.5878 16.8421 24.6103 16.8421 24.6255C16.8421 24.6406 16.8491 24.653 16.8576 24.653C16.8661 24.653 16.8731 24.667 16.8731 24.6841C16.8731 24.7011 16.88 24.7151 16.8885 24.7151C16.8971 24.7151 16.904 24.729 16.904 24.7461C16.904 24.7632 16.911 24.7771 16.9195 24.7771C16.928 24.7771 16.935 24.7895 16.935 24.8047C16.935 24.8199 16.9489 24.8424 16.9659 24.8547C16.983 24.867 16.9969 24.8894 16.9969 24.9046C16.9969 24.9198 17.0039 24.9322 17.0124 24.9322C17.0209 24.9322 17.0279 24.9446 17.0279 24.9598C17.0279 24.975 17.0418 24.9975 17.0588 25.0098C17.0759 25.0221 17.0898 25.0445 17.0898 25.0597C17.0898 25.0749 17.0968 25.0873 17.1053 25.0873C17.1138 25.0873 17.1207 25.0997 17.1207 25.1149C17.1207 25.1301 17.1347 25.1526 17.1517 25.1649C17.1687 25.1772 17.1827 25.1981 17.1827 25.2114C17.1827 25.2247 17.1966 25.2456 17.2136 25.2579C17.2307 25.2702 17.2446 25.2912 17.2446 25.3045C17.2446 25.3178 17.2585 25.3387 17.2755 25.351C17.2926 25.3633 17.3065 25.3842 17.3065 25.3975C17.3065 25.4108 17.3204 25.4318 17.3375 25.4441C17.3545 25.4564 17.3684 25.4773 17.3684 25.4906C17.3684 25.5039 17.3824 25.5248 17.3994 25.5371C17.4164 25.5494 17.4303 25.5704 17.4303 25.5836C17.4303 25.5969 17.4443 25.6179 17.4613 25.6302C17.4783 25.6425 17.4923 25.6622 17.4923 25.6739C17.4923 25.6857 17.5132 25.7148 17.5387 25.7388C17.5642 25.7627 17.5851 25.7906 17.5851 25.8008C17.5851 25.811 17.606 25.8389 17.6316 25.8628C17.6571 25.8867 17.678 25.9147 17.678 25.9249C17.678 25.9351 17.6989 25.963 17.7245 25.9869C17.75 26.0108 17.7709 26.0386 17.7709 26.0486C17.7709 26.0587 17.7988 26.0937 17.8328 26.1265C17.8669 26.1593 17.8947 26.1942 17.8947 26.2041C17.8947 26.2139 17.9226 26.2488 17.9567 26.2816C17.9907 26.3144 18.0186 26.3493 18.0186 26.3592C18.0186 26.369 18.0464 26.4039 18.0805 26.4367C18.1146 26.4695 18.1424 26.5042 18.1424 26.5139C18.1424 26.5236 18.1842 26.5726 18.2353 26.6228C18.2864 26.6731 18.3282 26.7218 18.3282 26.7311C18.3282 26.7404 18.3978 26.8173 18.483 26.902C18.5681 26.9867 18.6378 27.0633 18.6378 27.0722C18.6378 27.0934 19.3913 27.8481 19.4124 27.8481C19.4214 27.8481 19.4768 27.897 19.5356 27.9567C19.5944 28.0164 19.6501 28.0653 19.6594 28.0653C19.6688 28.0653 19.7245 28.1141 19.7833 28.1738C19.8421 28.2336 19.8979 28.2824 19.9074 28.2824C19.9169 28.2824 19.9585 28.3173 20 28.36C20.0415 28.4026 20.0834 28.4375 20.0931 28.4375C20.1028 28.4375 20.1376 28.4654 20.1703 28.4995C20.203 28.5337 20.238 28.5616 20.248 28.5616C20.258 28.5616 20.2857 28.5825 20.3096 28.6081C20.3335 28.6337 20.3612 28.6547 20.3712 28.6547C20.3812 28.6547 20.4162 28.6826 20.4489 28.7167C20.4816 28.7508 20.5166 28.7787 20.5266 28.7787C20.5367 28.7787 20.5644 28.7997 20.5882 28.8253C20.6121 28.8509 20.6412 28.8718 20.6529 28.8718C20.6647 28.8718 20.6843 28.8858 20.6966 28.9028C20.7089 28.9199 20.7298 28.9338 20.743 28.9338C20.7563 28.9338 20.7772 28.9478 20.7895 28.9649C20.8018 28.9819 20.8214 28.9959 20.8331 28.9959C20.8448 28.9959 20.874 29.0168 20.8978 29.0424C20.9217 29.068 20.9508 29.0889 20.9625 29.0889C20.9743 29.0889 20.9939 29.1029 21.0062 29.12C21.0185 29.137 21.0394 29.151 21.0526 29.151C21.0659 29.151 21.0868 29.1649 21.0991 29.182C21.1113 29.1991 21.1338 29.213 21.1489 29.213C21.1641 29.213 21.1765 29.22 21.1765 29.2285C21.1765 29.2371 21.1889 29.244 21.204 29.244C21.2192 29.244 21.2416 29.258 21.2539 29.2751C21.2661 29.2921 21.2886 29.3061 21.3037 29.3061C21.3189 29.3061 21.3313 29.3131 21.3313 29.3216C21.3313 29.3301 21.3437 29.3371 21.3588 29.3371C21.374 29.3371 21.3964 29.3511 21.4087 29.3681C21.4209 29.3852 21.4418 29.3991 21.4551 29.3991C21.4684 29.3991 21.4893 29.4131 21.5016 29.4302C21.5138 29.4472 21.5363 29.4612 21.5514 29.4612C21.5666 29.4612 21.5789 29.4682 21.5789 29.4767C21.5789 29.4852 21.5929 29.4922 21.6099 29.4922C21.6269 29.4922 21.6409 29.4992 21.6409 29.5077C21.6409 29.5162 21.6548 29.5232 21.6718 29.5232C21.6889 29.5232 21.7028 29.5302 21.7028 29.5387C21.7028 29.5473 21.7167 29.5542 21.7337 29.5542C21.7508 29.5542 21.7647 29.5612 21.7647 29.5697C21.7647 29.5783 21.7786 29.5853 21.7957 29.5853C21.8127 29.5853 21.8266 29.5922 21.8266 29.6008C21.8266 29.6093 21.8406 29.6163 21.8576 29.6163C21.8746 29.6163 21.8885 29.6233 21.8885 29.6318C21.8885 29.6403 21.9025 29.6473 21.9195 29.6473C21.9365 29.6473 21.9505 29.6543 21.9505 29.6628C21.9505 29.6713 21.9644 29.6783 21.9814 29.6783C21.9985 29.6783 22.0124 29.6853 22.0124 29.6938C22.0124 29.7024 22.0263 29.7093 22.0433 29.7093C22.0604 29.7093 22.0743 29.7163 22.0743 29.7248C22.0743 29.7334 22.0882 29.7404 22.1053 29.7404C22.1223 29.7404 22.1362 29.7473 22.1362 29.7559C22.1362 29.7644 22.1571 29.7714 22.1827 29.7714C22.2082 29.7714 22.2291 29.7784 22.2291 29.7869C22.2291 29.7954 22.25 29.8024 22.2755 29.8024C22.3011 29.8024 22.322 29.8094 22.322 29.8179C22.322 29.8264 22.3429 29.8334 22.3684 29.8334C22.394 29.8334 22.4149 29.8404 22.4149 29.8489C22.4149 29.8575 22.4288 29.8644 22.4458 29.8644C22.4629 29.8644 22.4768 29.8714 22.4768 29.8799C22.4768 29.8885 22.5116 29.8955 22.5542 29.8955C22.5968 29.8955 22.6316 29.9024 22.6316 29.911C22.6316 29.9203 22.6935 29.9265 22.7864 29.9265C22.8793 29.9265 22.9412 29.9203 22.9412 29.911C22.9412 29.9024 22.976 29.8955 23.0186 29.8955C23.0611 29.8955 23.096 29.8885 23.096 29.8799C23.096 29.8714 23.1169 29.8644 23.1424 29.8644C23.168 29.8644 23.1889 29.8575 23.1889 29.8489C23.1889 29.8404 23.2098 29.8334 23.2353 29.8334C23.2608 29.8334 23.2817 29.8264 23.2817 29.8179C23.2817 29.8094 23.3026 29.8024 23.3282 29.8024C23.3537 29.8024 23.3746 29.7954 23.3746 29.7869C23.3746 29.7784 23.3885 29.7714 23.4056 29.7714C23.4226 29.7714 23.4365 29.7644 23.4365 29.7559C23.4365 29.7473 23.4505 29.7404 23.4675 29.7404C23.4845 29.7404 23.4985 29.7334 23.4985 29.7248C23.4985 29.7163 23.5194 29.7093 23.5449 29.7093C23.5704 29.7093 23.5913 29.7024 23.5913 29.6938C23.5913 29.6853 23.6053 29.6783 23.6223 29.6783C23.6393 29.6783 23.6533 29.6713 23.6533 29.6628C23.6533 29.6543 23.6657 29.6473 23.6808 29.6473C23.6959 29.6473 23.7184 29.6333 23.7307 29.6163C23.7429 29.5992 23.7654 29.5853 23.7805 29.5853C23.7957 29.5853 23.8081 29.5783 23.8081 29.5697C23.8081 29.5612 23.822 29.5542 23.839 29.5542C23.856 29.5542 23.87 29.5473 23.87 29.5387C23.87 29.5302 23.8839 29.5232 23.9009 29.5232C23.918 29.5232 23.9319 29.5162 23.9319 29.5077C23.9319 29.4992 23.9443 29.4922 23.9594 29.4922C23.9746 29.4922 23.997 29.4782 24.0093 29.4612C24.0216 29.4441 24.0425 29.4302 24.0557 29.4302C24.069 29.4302 24.0899 29.4162 24.1022 29.3991C24.1144 29.3821 24.1369 29.3681 24.152 29.3681C24.1672 29.3681 24.1796 29.3611 24.1796 29.3526C24.1796 29.3441 24.192 29.3371 24.2071 29.3371C24.2223 29.3371 24.2447 29.3231 24.257 29.3061C24.2692 29.289 24.2901 29.2751 24.3034 29.2751C24.3167 29.2751 24.3376 29.2611 24.3498 29.244C24.3621 29.227 24.3818 29.213 24.3935 29.213C24.4052 29.213 24.4344 29.1921 24.4582 29.1665C24.4821 29.1409 24.5112 29.12 24.5229 29.12C24.5346 29.12 24.5543 29.106 24.5666 29.0889C24.5788 29.0719 24.5997 29.0579 24.613 29.0579C24.6263 29.0579 24.6472 29.044 24.6594 29.0269C24.6717 29.0098 24.6914 28.9959 24.7031 28.9959C24.7148 28.9959 24.7439 28.9749 24.7678 28.9493C24.7917 28.9238 24.8191 28.9028 24.8287 28.9028C24.8548 28.9028 24.9536 28.7989 24.9536 28.7715C24.9536 28.7584 24.9605 28.7477 24.969 28.7477C24.9776 28.7477 24.9845 28.7338 24.9845 28.7167C24.9845 28.6996 24.9776 28.6857 24.969 28.6857C24.9605 28.6857 24.9536 28.6732 24.9536 28.6581C24.9536 28.6429 24.9396 28.6204 24.9226 28.6081C24.9056 28.5958 24.8916 28.5733 24.8916 28.5582C24.8916 28.543 24.8847 28.5306 24.8762 28.5306C24.8676 28.5306 24.8607 28.5166 24.8607 28.4995C24.8607 28.4825 24.8537 28.4685 24.8452 28.4685C24.8367 28.4685 24.8297 28.4546 24.8297 28.4375C24.8297 28.4204 24.8228 28.4065 24.8142 28.4065C24.8057 28.4065 24.7988 28.3925 24.7988 28.3755C24.7988 28.3584 24.7918 28.3444 24.7833 28.3444C24.7748 28.3444 24.7678 28.3305 24.7678 28.3134C24.7678 28.2964 24.7608 28.2824 24.7523 28.2824C24.7438 28.2824 24.7368 28.2684 24.7368 28.2514C24.7368 28.2343 24.7299 28.2204 24.7214 28.2204C24.7129 28.2204 24.7059 28.2064 24.7059 28.1893C24.7059 28.1723 24.6989 28.1583 24.6904 28.1583C24.6819 28.1583 24.6749 28.1444 24.6749 28.1273C24.6749 28.1102 24.668 28.0963 24.6594 28.0963C24.6509 28.0963 24.644 28.0753 24.644 28.0498C24.644 28.0242 24.637 28.0032 24.6285 28.0032C24.62 28.0032 24.613 27.9893 24.613 27.9722C24.613 27.9551 24.606 27.9412 24.5975 27.9412C24.589 27.9412 24.582 27.9202 24.582 27.8947C24.582 27.8691 24.5751 27.8481 24.5666 27.8481C24.5581 27.8481 24.5511 27.8272 24.5511 27.8016C24.5511 27.776 24.5441 27.7551 24.5356 27.7551C24.5271 27.7551 24.5201 27.7271 24.5201 27.693C24.5201 27.6589 24.5132 27.631 24.5046 27.631C24.4961 27.631 24.4892 27.6031 24.4892 27.5689C24.4892 27.5348 24.4822 27.5069 24.4737 27.5069C24.4652 27.5069 24.4582 27.479 24.4582 27.4449C24.4582 27.4107 24.4512 27.3828 24.4427 27.3828C24.4341 27.3828 24.4272 27.3415 24.4272 27.2898C24.4272 27.2381 24.4204 27.1967 24.4118 27.1967C24.4027 27.1967 24.3963 27.145 24.3963 27.0726C24.3963 27.0002 24.3898 26.9485 24.3808 26.9485C24.371 26.9485 24.3653 26.84 24.3653 26.6538C24.3653 26.4677 24.371 26.3592 24.3808 26.3592C24.39 26.3592 24.3963 26.3023 24.3963 26.2196C24.3963 26.1368 24.4026 26.08 24.4118 26.08C24.4206 26.08 24.4272 26.0334 24.4272 25.9714C24.4272 25.9094 24.4339 25.8628 24.4427 25.8628C24.4512 25.8628 24.4582 25.8349 24.4582 25.8008C24.4582 25.7667 24.4652 25.7388 24.4737 25.7388C24.4822 25.7388 24.4892 25.7108 24.4892 25.6767C24.4892 25.6426 24.4961 25.6147 24.5046 25.6147C24.5132 25.6147 24.5201 25.5868 24.5201 25.5526C24.5201 25.5185 24.5271 25.4906 24.5356 25.4906C24.5441 25.4906 24.5511 25.4766 24.5511 25.4596C24.5511 25.4425 24.5581 25.4285 24.5666 25.4285C24.5751 25.4285 24.582 25.4076 24.582 25.382C24.582 25.3564 24.589 25.3355 24.5975 25.3355C24.606 25.3355 24.613 25.3145 24.613 25.289C24.613 25.2634 24.62 25.2424 24.6285 25.2424C24.637 25.2424 24.644 25.2215 24.644 25.1959C24.644 25.1703 24.6509 25.1494 24.6594 25.1494C24.668 25.1494 24.6749 25.1354 24.6749 25.1183C24.6749 25.1013 24.6819 25.0873 24.6904 25.0873C24.6989 25.0873 24.7059 25.0734 24.7059 25.0563C24.7059 25.0392 24.7129 25.0253 24.7214 25.0253C24.7299 25.0253 24.7368 25.0113 24.7368 24.9943C24.7368 24.9772 24.7438 24.9632 24.7523 24.9632C24.7608 24.9632 24.7678 24.9493 24.7678 24.9322C24.7678 24.9152 24.7748 24.9012 24.7833 24.9012C24.7918 24.9012 24.7988 24.8872 24.7988 24.8702C24.7988 24.8531 24.8057 24.8392 24.8142 24.8392C24.8228 24.8392 24.8297 24.8267 24.8297 24.8116C24.8297 24.7964 24.8437 24.7739 24.8607 24.7616C24.8777 24.7493 24.8916 24.7268 24.8916 24.7117C24.8916 24.6965 24.8986 24.6841 24.9071 24.6841C24.9156 24.6841 24.9226 24.6716 24.9226 24.6565C24.9226 24.6413 24.9365 24.6188 24.9536 24.6065C24.9706 24.5942 24.9845 24.5717 24.9845 24.5566C24.9845 24.5414 24.9915 24.529 25 24.529C25.0085 24.529 25.0155 24.5178 25.0155 24.5042C25.0155 24.4905 25.0364 24.4598 25.0619 24.4359C25.0875 24.412 25.1084 24.3841 25.1084 24.3739C25.1084 24.3636 25.1293 24.3357 25.1548 24.3118C25.1803 24.2879 25.2012 24.2606 25.2012 24.2512C25.2012 24.227 25.7695 23.6604 25.7937 23.6604C25.8046 23.6604 25.8236 23.6464 25.8359 23.6294C25.8482 23.6123 25.8678 23.5984 25.8796 23.5984C25.8913 23.5984 25.9204 23.5774 25.9443 23.5518C25.9681 23.5262 25.9973 23.5053 26.009 23.5053C26.0207 23.5053 26.0404 23.4913 26.0526 23.4743C26.0649 23.4572 26.0858 23.4433 26.0991 23.4433C26.1123 23.4433 26.1332 23.4293 26.1455 23.4122C26.1578 23.3952 26.1802 23.3812 26.1954 23.3812C26.2105 23.3812 26.2229 23.3742 26.2229 23.3657C26.2229 23.3572 26.2353 23.3502 26.2505 23.3502C26.2656 23.3502 26.288 23.3362 26.3003 23.3192C26.3126 23.3021 26.335 23.2882 26.3502 23.2882C26.3653 23.2882 26.3777 23.2812 26.3777 23.2726C26.3777 23.2641 26.3916 23.2571 26.4087 23.2571C26.4257 23.2571 26.4396 23.2502 26.4396 23.2416C26.4396 23.2331 26.4536 23.2261 26.4706 23.2261C26.4876 23.2261 26.5015 23.2191 26.5015 23.2106C26.5015 23.2021 26.5155 23.1951 26.5325 23.1951C26.5495 23.1951 26.5635 23.1881 26.5635 23.1796C26.5635 23.1711 26.5774 23.1641 26.5944 23.1641C26.6115 23.1641 26.6254 23.1571 26.6254 23.1486C26.6254 23.14 26.6463 23.1331 26.6718 23.1331C26.6974 23.1331 26.7183 23.1261 26.7183 23.1175C26.7183 23.109 26.7322 23.102 26.7492 23.102C26.7663 23.102 26.7802 23.0951 26.7802 23.0865C26.7802 23.078 26.8011 23.071 26.8266 23.071C26.8522 23.071 26.8731 23.064 26.8731 23.0555C26.8731 23.047 26.894 23.04 26.9195 23.04C26.945 23.04 26.9659 23.033 26.9659 23.0245C26.9659 23.016 26.9868 23.009 27.0124 23.009C27.0379 23.009 27.0588 23.002 27.0588 22.9935C27.0588 22.9849 27.0867 22.978 27.1207 22.978C27.1548 22.978 27.1827 22.971 27.1827 22.9624C27.1827 22.9539 27.2105 22.9469 27.2446 22.9469C27.2786 22.9469 27.3065 22.94 27.3065 22.9314C27.3065 22.9229 27.3344 22.9159 27.3684 22.9159C27.4025 22.9159 27.4303 22.9089 27.4303 22.9004C27.4303 22.8918 27.4716 22.8849 27.5232 22.8849C27.5748 22.8849 27.6161 22.878 27.6161 22.8694C27.6161 22.86 27.6832 22.8539 27.7864 22.8539C27.8896 22.8539 27.9567 22.8478 27.9567 22.8384C27.9567 22.8286 28.0547 22.8229 28.2198 22.8229C28.3849 22.8229 28.483 22.8286 28.483 22.8384C28.483 22.8476 28.5397 22.8539 28.6223 22.8539C28.7048 22.8539 28.7616 22.8602 28.7616 22.8694C28.7616 22.8779 28.7964 22.8849 28.839 22.8849C28.8816 22.8849 28.9164 22.8919 28.9164 22.9004C28.9164 22.9089 28.9443 22.9159 28.9783 22.9159C29.0124 22.9159 29.0402 22.9229 29.0402 22.9314C29.0402 22.94 29.0681 22.9469 29.1022 22.9469C29.1362 22.9469 29.1641 22.9539 29.1641 22.9624C29.1641 22.9712 29.2081 22.978 29.2652 22.978C29.36 22.978 29.3697 22.9746 29.42 22.9242C29.453 22.8911 29.4737 22.8553 29.4737 22.8311C29.4737 22.8095 29.4807 22.7918 29.4892 22.7918C29.4977 22.7918 29.5046 22.7639 29.5046 22.7298C29.5046 22.6957 29.5116 22.6677 29.5201 22.6677C29.5286 22.6677 29.5356 22.6329 29.5356 22.5902C29.5356 22.5475 29.5426 22.5126 29.5511 22.5126C29.5596 22.5126 29.5666 22.4847 29.5666 22.4506C29.5666 22.4165 29.5735 22.3886 29.582 22.3886C29.5907 22.3886 29.5975 22.3472 29.5975 22.2955C29.5975 22.2438 29.6044 22.2024 29.613 22.2024C29.6216 22.2024 29.6285 22.1611 29.6285 22.1094C29.6285 22.0577 29.6354 22.0163 29.644 22.0163C29.6531 22.0163 29.6594 21.9594 29.6594 21.8767C29.6594 21.794 29.6657 21.7371 29.6749 21.7371C29.6852 21.7371 29.6904 20.8737 29.6904 19.178C29.6904 17.4822 29.6852 16.6188 29.6749 16.6188C29.6663 16.6188 29.6594 16.5774 29.6594 16.5257C29.6594 16.4741 29.6526 16.4327 29.644 16.4327C29.6355 16.4327 29.6285 16.422 29.6285 16.409C29.6285 16.396 29.5973 16.3541 29.5592 16.316C29.4976 16.2542 29.4823 16.2466 29.4199 16.2466C29.3814 16.2466 29.3498 16.2396 29.3498 16.2311C29.3498 16.221 29.128 16.2155 28.7152 16.2155C28.3024 16.2155 28.0805 16.2101 28.0805 16.2C28.0805 16.1908 28.0237 16.1845 27.9412 16.1845C27.8586 16.1845 27.8019 16.1782 27.8019 16.169C27.8019 16.16 27.7503 16.1535 27.678 16.1535C27.6058 16.1535 27.5542 16.147 27.5542 16.138C27.5542 16.1291 27.5077 16.1225 27.4458 16.1225C27.3839 16.1225 27.3375 16.1158 27.3375 16.107C27.3375 16.0984 27.3026 16.0915 27.2601 16.0915C27.2175 16.0915 27.1827 16.0845 27.1827 16.076C27.1827 16.0674 27.1548 16.0604 27.1207 16.0604C27.0867 16.0604 27.0588 16.0535 27.0588 16.0449C27.0588 16.0364 27.031 16.0294 26.9969 16.0294C26.9629 16.0294 26.935 16.0224 26.935 16.0139C26.935 16.0054 26.9071 15.9984 26.8731 15.9984C26.839 15.9984 26.8111 15.9914 26.8111 15.9829C26.8111 15.9744 26.7902 15.9674 26.7647 15.9674C26.7392 15.9674 26.7183 15.9604 26.7183 15.9519C26.7183 15.9433 26.6974 15.9364 26.6718 15.9364C26.6463 15.9364 26.6254 15.9294 26.6254 15.9209C26.6254 15.9123 26.6045 15.9053 26.5789 15.9053C26.5534 15.9053 26.5325 15.8984 26.5325 15.8898C26.5325 15.8813 26.5116 15.8743 26.4861 15.8743C26.4605 15.8743 26.4396 15.8673 26.4396 15.8588C26.4396 15.8503 26.4187 15.8433 26.3932 15.8433C26.3676 15.8433 26.3468 15.8363 26.3468 15.8278C26.3468 15.8193 26.3259 15.8123 26.3003 15.8123C26.2748 15.8123 26.2539 15.8053 26.2539 15.7968C26.2539 15.7882 26.2399 15.7813 26.2229 15.7813C26.2059 15.7813 26.192 15.7743 26.192 15.7658C26.192 15.7572 26.1711 15.7502 26.1455 15.7502C26.12 15.7502 26.0991 15.7433 26.0991 15.7347C26.0991 15.7262 26.0851 15.7192 26.0681 15.7192C26.0511 15.7192 26.0372 15.7122 26.0372 15.7037C26.0372 15.6952 26.0232 15.6882 26.0062 15.6882C25.9892 15.6882 25.9752 15.6812 25.9752 15.6727C25.9752 15.6642 25.9613 15.6572 25.9443 15.6572C25.9272 15.6572 25.9133 15.6502 25.9133 15.6417C25.9133 15.6331 25.8994 15.6262 25.8824 15.6262C25.8653 15.6262 25.8514 15.6192 25.8514 15.6106C25.8514 15.6021 25.8305 15.5951 25.805 15.5951C25.7794 15.5951 25.7585 15.5882 25.7585 15.5796C25.7585 15.5711 25.7446 15.5641 25.7276 15.5641C25.7105 15.5641 25.6966 15.5571 25.6966 15.5486C25.6966 15.5401 25.6827 15.5331 25.6656 15.5331C25.6486 15.5331 25.6347 15.5261 25.6347 15.5176C25.6347 15.5091 25.6207 15.5021 25.6037 15.5021C25.5867 15.5021 25.5728 15.4951 25.5728 15.4866C25.5728 15.478 25.5588 15.4711 25.5418 15.4711C25.5248 15.4711 25.5108 15.4641 25.5108 15.4555C25.5108 15.447 25.4969 15.44 25.4799 15.44C25.4629 15.44 25.4489 15.4331 25.4489 15.4245C25.4489 15.416 25.435 15.409 25.418 15.409C25.4009 15.409 25.387 15.402 25.387 15.3935C25.387 15.385 25.3731 15.378 25.356 15.378C25.339 15.378 25.3251 15.371 25.3251 15.3625C25.3251 15.354 25.3111 15.347 25.2941 15.347C25.2771 15.347 25.2632 15.34 25.2632 15.3315C25.2632 15.3229 25.2492 15.316 25.2322 15.316C25.2152 15.316 25.2012 15.309 25.2012 15.3004C25.2012 15.2919 25.1873 15.2849 25.1703 15.2849C25.1533 15.2849 25.1393 15.278 25.1393 15.2694C25.1393 15.2609 25.1254 15.2539 25.1084 15.2539C25.0913 15.2539 25.0774 15.2469 25.0774 15.2384C25.0774 15.2299 25.065 15.2229 25.0499 15.2229C25.0347 15.2229 25.0123 15.2089 25 15.1919C24.9877 15.1748 24.9653 15.1609 24.9501 15.1609C24.935 15.1609 24.9226 15.1539 24.9226 15.1453C24.9226 15.1368 24.9087 15.1298 24.8916 15.1298C24.8746 15.1298 24.8607 15.1229 24.8607 15.1143C24.8607 15.1058 24.8483 15.0988 24.8331 15.0988C24.818 15.0988 24.7956 15.0849 24.7833 15.0678C24.771 15.0507 24.7486 15.0368 24.7334 15.0368C24.7183 15.0368 24.7059 15.0298 24.7059 15.0213C24.7059 15.0127 24.692 15.0058 24.6749 15.0058C24.6579 15.0058 24.644 14.9988 24.644 14.9902C24.644 14.9817 24.6316 14.9747 24.6164 14.9747C24.6013 14.9747 24.5788 14.9608 24.5666 14.9437C24.5543 14.9267 24.5319 14.9127 24.5167 14.9127C24.5016 14.9127 24.4892 14.9057 24.4892 14.8972C24.4892 14.8887 24.4752 14.8817 24.4582 14.8817C24.4412 14.8817 24.4272 14.8747 24.4272 14.8662C24.4272 14.8576 24.4148 14.8507 24.3997 14.8507C24.3846 14.8507 24.3621 14.8367 24.3498 14.8196C24.3376 14.8026 24.3151 14.7886 24.3 14.7886C24.2848 14.7886 24.2724 14.7816 24.2724 14.7731C24.2724 14.7646 24.26 14.7576 24.2449 14.7576C24.2298 14.7576 24.2073 14.7436 24.195 14.7266C24.1828 14.7095 24.1603 14.6956 24.1452 14.6956C24.13 14.6956 24.1176 14.6886 24.1176 14.68C24.1176 14.6715 24.1052 14.6645 24.0901 14.6645C24.075 14.6645 24.0525 14.6506 24.0402 14.6335C24.028 14.6165 24.0055 14.6025 23.9904 14.6025C23.9752 14.6025 23.9629 14.5955 23.9629 14.587C23.9629 14.5785 23.9505 14.5715 23.9353 14.5715C23.9202 14.5715 23.8977 14.5575 23.8855 14.5405C23.8732 14.5234 23.8507 14.5094 23.8356 14.5094C23.8205 14.5094 23.8081 14.5025 23.8081 14.4939C23.8081 14.4854 23.7941 14.4784 23.7771 14.4784C23.7601 14.4784 23.7461 14.4714 23.7461 14.4629C23.7461 14.4544 23.7337 14.4474 23.7186 14.4474C23.7034 14.4474 23.681 14.4334 23.6687 14.4164C23.6565 14.3993 23.634 14.3854 23.6189 14.3854C23.6037 14.3854 23.5913 14.3784 23.5913 14.3698C23.5913 14.3613 23.5774 14.3543 23.5604 14.3543C23.5433 14.3543 23.5294 14.3474 23.5294 14.3388C23.5294 14.3303 23.517 14.3233 23.5019 14.3233C23.4867 14.3233 23.4643 14.3094 23.452 14.2923C23.4389 14.2741 23.4119 14.2613 23.3867 14.2613C23.363 14.2613 23.3437 14.2543 23.3437 14.2458C23.3437 14.2372 23.3297 14.2302 23.3127 14.2302C23.2957 14.2302 23.2817 14.2233 23.2817 14.2147C23.2817 14.2062 23.2678 14.1992 23.2508 14.1992C23.2337 14.1992 23.2198 14.1922 23.2198 14.1837C23.2198 14.1752 23.2059 14.1682 23.1889 14.1682C23.1718 14.1682 23.1579 14.1612 23.1579 14.1527C23.1579 14.1442 23.144 14.1372 23.1269 14.1372C23.1099 14.1372 23.096 14.1302 23.096 14.1217C23.096 14.1131 23.0751 14.1062 23.0495 14.1062C23.024 14.1062 23.0031 14.0992 23.0031 14.0907C23.0031 14.0821 22.9822 14.0751 22.9567 14.0751C22.9311 14.0751 22.9102 14.0682 22.9102 14.0596C22.9102 14.0508 22.8638 14.0441 22.8019 14.0441C22.7399 14.0441 22.6935 14.0508 22.6935 14.0596ZM30.4334 24.5755C30.4334 24.584 30.4071 24.591 30.3749 24.591C30.3342 24.591 30.3097 24.6004 30.2941 24.622C30.2818 24.6391 30.2627 24.653 30.2515 24.653C30.2274 24.653 30.1238 24.7535 30.1238 24.7769C30.1238 24.7858 29.9706 24.9465 29.7833 25.1339C29.596 25.3212 29.4427 25.4818 29.4427 25.4906C29.4427 25.4994 29.2895 25.6599 29.1022 25.8473C28.9149 26.0347 28.7616 26.1952 28.7616 26.2041C28.7616 26.2129 28.6153 26.3664 28.4365 26.5453C28.2577 26.7241 28.1115 26.8779 28.1115 26.8869C28.1115 26.9104 28.0394 26.9796 28.015 26.9796C28.0037 26.9796 27.9844 26.9935 27.9721 27.0106C27.959 27.0288 27.9321 27.0416 27.9068 27.0416C27.8831 27.0416 27.8638 27.0486 27.8638 27.0571C27.8638 27.066 27.8173 27.0726 27.7554 27.0726C27.6935 27.0726 27.6471 27.066 27.6471 27.0571C27.6471 27.0486 27.6331 27.0416 27.6161 27.0416C27.5991 27.0416 27.5851 27.0346 27.5851 27.0261C27.5851 27.0176 27.5712 27.0106 27.5542 27.0106C27.5372 27.0106 27.5232 27.0036 27.5232 26.9951C27.5232 26.9865 27.5121 26.9796 27.4985 26.9796C27.4849 26.9796 27.4542 26.9586 27.4303 26.933C27.4065 26.9074 27.3786 26.8865 27.3684 26.8865C27.3582 26.8865 27.3304 26.8656 27.3065 26.84C27.2826 26.8144 27.2548 26.7934 27.2446 26.7934C27.2344 26.7934 27.2065 26.7725 27.1827 26.7469C27.1588 26.7213 27.1297 26.7004 27.118 26.7004C27.1062 26.7004 27.0866 26.6864 27.0743 26.6694C27.062 26.6523 27.0424 26.6383 27.0307 26.6383C27.0189 26.6383 26.9898 26.6174 26.9659 26.5918C26.9421 26.5662 26.9142 26.5453 26.904 26.5453C26.8938 26.5453 26.866 26.5243 26.8421 26.4987C26.8183 26.4732 26.7904 26.4522 26.7802 26.4522C26.77 26.4522 26.7421 26.4313 26.7183 26.4057C26.6944 26.3801 26.6653 26.3592 26.6536 26.3592C26.6418 26.3592 26.6222 26.3452 26.6099 26.3281C26.5976 26.3111 26.578 26.2971 26.5663 26.2971C26.5545 26.2971 26.5254 26.2762 26.5015 26.2506C26.4777 26.225 26.4498 26.2041 26.4396 26.2041C26.4294 26.2041 26.4016 26.1831 26.3777 26.1575C26.3539 26.1319 26.326 26.111 26.3158 26.111C26.3056 26.111 26.2777 26.0901 26.2539 26.0645C26.23 26.0389 26.2009 26.0179 26.1892 26.0179C26.1774 26.0179 26.1578 26.004 26.1455 25.9869C26.1332 25.9699 26.1136 25.9559 26.1019 25.9559C26.0901 25.9559 26.061 25.935 26.0372 25.9094C26.0133 25.8838 25.9826 25.8628 25.969 25.8628C25.9554 25.8628 25.9443 25.8559 25.9443 25.8473C25.9443 25.8388 25.9164 25.8318 25.8824 25.8318C25.8483 25.8318 25.8204 25.8248 25.8204 25.8163C25.8204 25.8078 25.7995 25.8008 25.774 25.8008C25.7485 25.8008 25.7276 25.8078 25.7276 25.8163C25.7276 25.8248 25.7082 25.8318 25.6845 25.8318C25.6593 25.8318 25.6323 25.8446 25.6192 25.8628C25.6069 25.8799 25.5875 25.8939 25.576 25.8939C25.5503 25.8939 25.5108 25.9317 25.5108 25.9563C25.5108 25.9663 25.4899 25.994 25.4644 26.0179C25.4389 26.0418 25.418 26.0696 25.418 26.0797C25.418 26.0897 25.3901 26.1247 25.356 26.1575C25.322 26.1903 25.2941 26.2253 25.2941 26.2354C25.2941 26.2454 25.2732 26.2732 25.2477 26.2971C25.2221 26.321 25.2012 26.3517 25.2012 26.3654C25.2012 26.379 25.1943 26.3902 25.1858 26.3902C25.1772 26.3902 25.1703 26.4041 25.1703 26.4212C25.1703 26.4383 25.1633 26.4522 25.1548 26.4522C25.1462 26.4522 25.1393 26.4936 25.1393 26.5453C25.1393 26.597 25.1462 26.6383 25.1548 26.6383C25.1633 26.6383 25.1703 26.6559 25.1703 26.6774C25.1703 26.7048 25.2003 26.7465 25.2706 26.817C25.3258 26.8723 25.3787 26.9175 25.3882 26.9175C25.3978 26.9175 25.4251 26.9385 25.4489 26.964C25.4728 26.9896 25.5006 27.0106 25.5108 27.0106C25.521 27.0106 25.5489 27.0315 25.5728 27.0571C25.5966 27.0827 25.6257 27.1036 25.6375 27.1036C25.6492 27.1036 25.6688 27.1176 25.6811 27.1347C25.6934 27.1517 25.713 27.1657 25.7248 27.1657C25.7365 27.1657 25.7656 27.1866 25.7895 27.2122C25.8133 27.2378 25.8412 27.2587 25.8514 27.2587C25.8616 27.2587 25.8895 27.2797 25.9133 27.3053C25.9372 27.3309 25.965 27.3518 25.9752 27.3518C25.9854 27.3518 26.0133 27.3727 26.0372 27.3983C26.061 27.4239 26.0889 27.4449 26.0991 27.4449C26.1093 27.4449 26.1371 27.4658 26.161 27.4914C26.1848 27.517 26.2127 27.5379 26.2229 27.5379C26.2331 27.5379 26.261 27.5589 26.2848 27.5845C26.3087 27.61 26.3378 27.631 26.3495 27.631C26.3613 27.631 26.3809 27.6449 26.3932 27.662C26.4055 27.6791 26.4251 27.693 26.4368 27.693C26.4486 27.693 26.4777 27.714 26.5015 27.7396C26.5254 27.7651 26.5533 27.7861 26.5635 27.7861C26.5737 27.7861 26.6015 27.807 26.6254 27.8326C26.6492 27.8582 26.6771 27.8791 26.6873 27.8791C26.6975 27.8791 26.7254 27.9001 26.7492 27.9257C26.7731 27.9513 26.8009 27.9722 26.8111 27.9722C26.8213 27.9722 26.8492 27.9931 26.8731 28.0187C26.8969 28.0443 26.9248 28.0653 26.935 28.0653C26.9452 28.0653 26.9731 28.0862 26.9969 28.1118C27.0208 28.1374 27.0499 28.1583 27.0616 28.1583C27.0733 28.1583 27.093 28.1723 27.1053 28.1893C27.1175 28.2064 27.1372 28.2204 27.1489 28.2204C27.1606 28.2204 27.1898 28.2413 27.2136 28.2669C27.2375 28.2925 27.2653 28.3134 27.2755 28.3134C27.2857 28.3134 27.3136 28.3344 27.3375 28.36C27.3613 28.3856 27.3892 28.4065 27.3994 28.4065C27.4096 28.4065 27.4374 28.4274 27.4613 28.453C27.4852 28.4786 27.513 28.4995 27.5232 28.4995C27.5334 28.4995 27.5613 28.5205 27.5851 28.5461C27.609 28.5717 27.6397 28.5926 27.6533 28.5926C27.6669 28.5926 27.678 28.5996 27.678 28.6081C27.678 28.6167 27.692 28.6236 27.709 28.6236C27.726 28.6236 27.7399 28.6306 27.7399 28.6391C27.7399 28.6477 27.7539 28.6547 27.7709 28.6547C27.7879 28.6547 27.8019 28.6616 27.8019 28.6702C27.8019 28.6788 27.8431 28.6857 27.8947 28.6857C27.9463 28.6857 27.9876 28.6788 27.9876 28.6702C27.9876 28.6616 28.007 28.6547 28.0306 28.6547C28.0559 28.6547 28.0829 28.6418 28.096 28.6236C28.1083 28.6066 28.1273 28.5926 28.1383 28.5926C28.1619 28.5926 28.452 28.3057 28.452 28.2823C28.452 28.2735 28.5774 28.1409 28.7307 27.9877C28.8839 27.8345 29.0093 27.7019 29.0093 27.693C29.0093 27.6842 29.1416 27.5446 29.3034 27.3828C29.4652 27.2211 29.5975 27.0815 29.5975 27.0726C29.5975 27.0637 29.7229 26.9311 29.8762 26.7779C30.0294 26.6247 30.1548 26.4921 30.1548 26.4833C30.1548 26.4744 30.2872 26.3348 30.4489 26.173C30.6107 26.0113 30.743 25.8716 30.743 25.8627C30.743 25.8537 30.8266 25.7631 30.9288 25.6612C31.031 25.5593 31.1146 25.4653 31.1146 25.4523C31.1146 25.4392 31.1215 25.4285 31.13 25.4285C31.1385 25.4285 31.1455 25.4146 31.1455 25.3975C31.1455 25.3805 31.1525 25.3665 31.161 25.3665C31.1698 25.3665 31.1765 25.32 31.1765 25.2579C31.1765 25.1959 31.1698 25.1494 31.161 25.1494C31.1525 25.1494 31.1455 25.1369 31.1455 25.1218C31.1455 25.1066 31.1316 25.0841 31.1146 25.0718C31.0975 25.0595 31.0836 25.04 31.0836 25.0285C31.0836 25.0032 31.046 24.9632 31.0222 24.9632C31.0128 24.9632 30.9359 24.8934 30.8514 24.8081C30.7668 24.7228 30.6885 24.653 30.6773 24.653C30.6661 24.653 30.647 24.6391 30.6347 24.622C30.6177 24.5984 30.5946 24.591 30.5384 24.591C30.4977 24.591 30.4644 24.584 30.4644 24.5755C30.4644 24.567 30.4574 24.56 30.4489 24.56C30.4404 24.56 30.4334 24.567 30.4334 24.5755Z" fill="#4378DB"/>
<path d="M22.5 0C10.0744 0 0 10.0744 0 22.5C0 34.9256 10.0744 45 22.5 45C34.9256 45 45 34.9256 45 22.5C45 10.0744 34.9256 0 22.5 0ZM22.5 41.0157C12.2917 41.0157 3.98426 32.7087 3.98426 22.5C3.98426 12.2892 12.2913 3.98426 22.5 3.98426C32.7083 3.98426 41.0157 12.2888 41.0157 22.5C41.0157 32.7083 32.7083 41.0157 22.5 41.0157Z" fill="#4378DB"/>
<path d="M15.2248 11.7081C16.2228 11.7081 17.0319 10.8991 17.0319 9.90105C17.0319 8.90304 16.2228 8.09399 15.2248 8.09399C14.2268 8.09399 13.4177 8.90304 13.4177 9.90105C13.4177 10.8991 14.2268 11.7081 15.2248 11.7081Z" fill="#4378DB"/>
<path d="M9.90103 17.0318C10.899 17.0318 11.708 16.2227 11.708 15.2248C11.708 14.2268 10.899 13.4178 9.90103 13.4178C8.90306 13.4178 8.09404 14.2268 8.09404 15.2248C8.09404 16.2227 8.90306 17.0318 9.90103 17.0318Z" fill="#4378DB"/>
<path d="M7.94958 24.307C8.94755 24.307 9.75656 23.498 9.75656 22.5C9.75656 21.502 8.94755 20.693 7.94958 20.693C6.95161 20.693 6.14259 21.502 6.14259 22.5C6.14259 23.498 6.95161 24.307 7.94958 24.307Z" fill="#4378DB"/>
<path d="M9.75625 31.5823C10.7543 31.5823 11.5633 30.7732 11.5633 29.7752C11.5633 28.7772 10.7543 27.9681 9.75625 27.9681C8.75824 27.9681 7.94919 28.7772 7.94919 29.7752C7.94919 30.7732 8.75824 31.5823 9.75625 31.5823Z" fill="#4378DB"/>
<path d="M15.2248 36.906C16.2228 36.906 17.0319 36.0969 17.0319 35.0989C17.0319 34.1009 16.2228 33.2918 15.2248 33.2918C14.2268 33.2918 13.4177 34.1009 13.4177 35.0989C13.4177 36.0969 14.2268 36.906 15.2248 36.906Z" fill="#4378DB"/>
<path d="M22.5 38.8564C23.498 38.8564 24.307 38.0474 24.307 37.0494C24.307 36.0514 23.498 35.2424 22.5 35.2424C21.502 35.2424 20.693 36.0514 20.693 37.0494C20.693 38.0474 21.502 38.8564 22.5 38.8564Z" fill="#4378DB"/>
<path d="M29.7728 36.906C30.7708 36.906 31.5798 36.0969 31.5798 35.0989C31.5798 34.1009 30.7708 33.2918 29.7728 33.2918C28.7748 33.2918 27.9657 34.1009 27.9657 35.0989C27.9657 36.0969 28.7748 36.906 29.7728 36.906Z" fill="#4378DB"/>
<path d="M35.099 31.5823C36.097 31.5823 36.906 30.7732 36.906 29.7752C36.906 28.7772 36.097 27.9681 35.099 27.9681C34.1009 27.9681 33.2919 28.7772 33.2919 29.7752C33.2919 30.7732 34.1009 31.5823 35.099 31.5823Z" fill="#4378DB"/>
</svg>
